<?xml version="1.0" encoding="UTF-8" standalone="no"?>
<!-- Created with Inkscape (http://www.inkscape.org/) -->

<svg
   width="135.46666mm"
   height="135.46666mm"
   viewBox="0 0 135.46666 135.46666"
   version="1.1"
   id="svg1"
   inkscape:version="1.4.3 (0d15f75042, 2025-12-25)"
   sodipodi:docname="icon.svg"
   inkscape:export-filename="schoolbell.png"
   inkscape:export-xdpi="96"
   inkscape:export-ydpi="96"
   xmlns:inkscape="http://www.inkscape.org/namespaces/inkscape"
   xmlns:sodipodi="http://sodipodi.sourceforge.net/DTD/sodipodi-0.dtd"
   xmlns:xlink="http://www.w3.org/1999/xlink"
   xmlns="http://www.w3.org/2000/svg"
   xmlns:svg="http://www.w3.org/2000/svg">
  <sodipodi:namedview
     id="namedview1"
     pagecolor="#ffffff"
     bordercolor="#000000"
     borderopacity="0.25"
     inkscape:showpageshadow="2"
     inkscape:pageopacity="0.0"
     inkscape:pagecheckerboard="0"
     inkscape:deskcolor="#d1d1d1"
     inkscape:document-units="mm"
     inkscape:zoom="0.67024358"
     inkscape:cx="396.87064"
     inkscape:cy="193.95934"
     inkscape:window-width="1920"
     inkscape:window-height="1025"
     inkscape:window-x="0"
     inkscape:window-y="0"
     inkscape:window-maximized="1"
     inkscape:current-layer="layer1" />
  <defs
     id="defs1">
    <linearGradient
       id="linearGradient1"
       inkscape:collect="always">
      <stop
         style="stop-color:#aaccff;stop-opacity:1"
         offset="0"
         id="stop1" />
      <stop
         style="stop-color:#0066ff;stop-opacity:1"
         offset="0.46071431"
         id="stop3" />
      <stop
         style="stop-color:#003380;stop-opacity:1"
         offset="1"
         id="stop2" />
    </linearGradient>
    <linearGradient
       inkscape:collect="always"
       xlink:href="#linearGradient1"
       id="linearGradient2"
       x1="58.61842"
       y1="66.992485"
       x2="97.697365"
       y2="106.07143"
       gradientUnits="userSpaceOnUse" />
  </defs>
  <g
     inkscape:label="Layer 1"
     inkscape:groupmode="layer"
     id="layer1"
     transform="translate(-58.618417,-66.992489)">
    <g
       id="g2"
       transform="matrix(3.4664873,0,0,3.4664873,-144.58159,-165.23611)">
      <rect
         style="fill:url(#linearGradient2);fill-opacity:1;stroke:none;stroke-width:0.264583"
         id="rect1"
         width="39.078945"
         height="39.078945"
         x="58.61842"
         y="66.992485"
         ry="4.0474615"
         inkscape:export-filename="schoolbell.png"
         inkscape:export-xdpi="96"
         inkscape:export-ydpi="96" />
      <g
         id="g1"
         transform="matrix(0.0448913,0,0,0.0448913,74.52148,82.486959)"
         style="fill:#ffffff">
        <path
           id="path3"
           d="m 295.34906,-182.46725 h -25.30475 v 37.52497 c 0,18.51378 -15.0636,33.57739 -33.57385,33.57739 -18.51377,0 -33.57385,-15.06361 -33.57385,-33.57739 v -37.52497 H -40.886954 v 37.52497 c 0,18.51378 -15.060081,33.57739 -33.573858,33.57739 -18.510249,0 -33.573858,-15.06361 -33.573858,-33.57739 v -37.52497 h -25.30475 c -29.62275,0 -53.721,24.09825 -53.721,53.721 v 379.14437 c 0,29.62275 24.09825,53.721 53.721,53.721 h 61.506802 c 3.00214,-3.97934 5.616223,-8.24442 7.775223,-12.72469 2.430637,-5.0306 4.293304,-10.34698 5.559777,-15.80443 h -74.841802 c -13.89239,0 -25.19186,-11.29948 -25.19186,-25.19188 V -33.157582 H 320.54091 V 250.39812 c 0,13.8924 -11.29945,25.19188 -25.19185,25.19188 h -69.63833 c 1.26648,5.45745 3.12915,10.77383 5.55977,15.80443 2.16254,4.48027 4.77663,8.74535 7.77875,12.72469 h 56.29981 c 29.62275,0 53.721,-24.09825 53.721,-53.721 v -379.14437 c 0,-29.62275 -24.09825,-53.721 -53.721,-53.721"
           style="fill:#ffffff;fill-opacity:1;fill-rule:nonzero;stroke:none;stroke-width:0.0352777" />
        <path
           id="path4"
           d="m -74.460812,-119.92681 v 0 c -13.815835,0 -25.015824,-11.19716 -25.015824,-25.01547 v -75.04641 c 0,-13.81478 11.199989,-25.01547 25.015824,-25.01547 v 0 c 13.815835,0 25.015825,11.20069 25.015825,25.01547 v 75.04641 c 0,13.81831 -11.19999,25.01547 -25.015825,25.01547"
           style="fill:#ffffff;fill-opacity:1;fill-rule:nonzero;stroke:none;stroke-width:0.0352777" />
        <path
           id="path5"
           d="m 236.47046,-119.92681 v 0 c -13.8148,0 -25.01548,-11.19716 -25.01548,-25.01547 v -75.04641 c 0,-13.81478 11.20068,-25.01547 25.01548,-25.01547 v 0 c 13.81477,0 25.01545,11.20069 25.01545,25.01547 v 75.04641 c 0,13.81831 -11.20068,25.01547 -25.01545,25.01547"
           style="fill:#ffffff;fill-opacity:1;fill-rule:nonzero;stroke:none;stroke-width:0.0352777" />
        <path
           id="path6"
           d="m 252.77938,340.56105 c 0,-2.81868 -0.64559,-5.56328 -1.83799,-8.03978 -1.19591,-2.4765 -2.94568,-4.68842 -5.15408,-6.44525 -20.61985,-16.38655 -32.63545,-41.29265 -32.63545,-67.63102 v -83.14621 c 0,-35.77167 -14.49917,-68.16019 -37.94125,-91.602271 C 156.89086,65.380288 133.11715,52.525083 106.53536,47.776686 V 33.055269 c 0,-12.664731 -10.265835,-22.927019 -22.927047,-22.927019 -12.661185,0 -22.927019,10.262288 -22.927019,22.927019 V 47.826083 C 0.23916405,58.860954 -45.938377,112.64545 -45.938377,176.15604 V 258.445 c 0,13.1727 -3.004608,25.98208 -8.586258,37.54612 -5.578123,11.56758 -13.73999,21.8934 -24.047802,30.0849 -2.207683,1.75683 -3.956756,3.96875 -5.153731,6.44525 -1.193445,2.4765 -1.838677,5.2211 -1.838677,8.03978 0,10.2235 8.286044,18.50673 18.504252,18.50673 H 234.27616 c 10.21647,0 18.50322,-8.28323 18.50322,-18.50673"
           style="fill:#ffffff;fill-opacity:1;fill-rule:nonzero;stroke:none;stroke-width:0.0352777" />
        <path
           id="path7"
           d="M 134.57413,371.57376 H 27.282067 c 0,29.62627 24.018875,53.64338 53.645144,53.64338 29.626269,0 53.646919,-24.01711 53.646919,-53.64338"
           style="fill:#ffffff;fill-opacity:1;fill-rule:nonzero;stroke:none;stroke-width:0.0352777" />
      </g>
    </g>
  </g>
</svg>
